<svg width="512" height="512" viewBox="0 0 512 512" fill="none" xmlns="http://www.w3.org/2000/svg">
<g clip-path="url(#clip0_205_295)">
<path d="M399.083 164.437L398.4 163.755C392.149 151.104 381.931 140.864 369.28 134.635L368.917 134.272L368.811 134.379C360.405 130.325 351.104 127.851 341.163 127.851L170.667 128C160.896 128 151.744 130.368 143.467 134.293L143.36 134.357C121.749 144.64 106.667 166.528 106.667 192V362.667L405.184 362.496V191.829C405.184 182.059 402.816 172.907 398.891 164.608L399.083 164.416V164.437ZM332.651 170.539L277.248 225.941C266.005 237.184 246.357 237.184 235.093 225.941L179.819 170.667L332.651 170.539ZM362.517 319.872L149.333 320V200.512L204.928 256.128C218.624 269.803 236.821 277.355 256.171 277.355C275.52 277.355 293.739 269.803 307.392 256.128L362.496 201.024V319.893L362.517 319.872ZM256 0C114.837 0 0 114.837 0 256C0 397.163 114.837 512 256 512C397.163 512 512 397.163 512 256C512 114.837 397.163 0 256 0ZM256 469.333C138.368 469.333 42.6667 373.632 42.6667 256C42.6667 138.368 138.368 42.6667 256 42.6667C373.632 42.6667 469.333 138.368 469.333 256C469.333 373.632 373.632 469.333 256 469.333Z" fill="#FFEE00"/>
</g>
<defs>
<clipPath id="clip0_205_295">
<rect width="512" height="512" fill="white"/>
</clipPath>
</defs>
</svg>
