<svg width="24" height="24" viewBox="0 0 24 24" fill="none" xmlns="http://www.w3.org/2000/svg">
<path d="M15 6.60678C14.3065 5.63023 13.7914 4.5591 13.7524 3.17012C13.7502 3.0939 13.6671 3.04639 13.6016 3.0855C10.1363 5.15576 10.2004 10.3491 10.2418 11.2901C10.2449 11.3611 10.1778 11.4112 10.1135 11.3809C9.71316 11.1924 8.5661 10.4823 8.50273 8.51531C8.50028 8.43898 8.41792 8.38991 8.35223 8.42885C6.34579 9.61803 5 11.8144 5 14.25C5 17.9779 8.134 21 12 21C15.866 21 19 17.9779 19 14.25C19 12.1208 18.2087 10.6486 17.2405 9.37275" stroke="#fff" stroke-width="1.5" stroke-linecap="round"/>
</svg>
