<svg width="24" height="24" viewBox="0 0 24 24" fill="none" xmlns="http://www.w3.org/2000/svg">
<path d="M4.75 14.5C4.75 14.0858 4.41421 13.75 4 13.75C3.58579 13.75 3.25 14.0858 3.25 14.5H4.75ZM20 11H20.75V10.25H20V11ZM19.25 11V18H20.75V11H19.25ZM16 21.25H8V22.75H16V21.25ZM14.5 11.75H20V10.25H14.5V11.75ZM4.75 18V16.5H3.25V18H4.75ZM4.75 16.5V15.5H3.25V16.5H4.75ZM4.75 15.5V14.5H3.25V15.5H4.75ZM8 21.25C6.20507 21.25 4.75 19.7949 4.75 18H3.25C3.25 20.6234 5.37665 22.75 8 22.75V21.25ZM19.25 18C19.25 19.7949 17.7949 21.25 16 21.25V22.75C18.6234 22.75 20.75 20.6234 20.75 18H19.25Z" fill="#FFEE00"/>
<path d="M16.5 11H19.5C20.3284 11 21 10.3284 21 9.5V7.5C21 6.67157 20.3284 6 19.5 6H4.5C3.67157 6 3 6.67157 3 7.5V9.5C3 10.3284 3.67157 11 4.5 11H9" stroke="#FFEE00" stroke-width="1.5"/>
<path d="M12 4.5C12 3.11929 13.1193 2 14.5 2H15C16.1046 2 17 2.89543 17 4V4C17 5.10457 16.1046 6 15 6H12V4.5Z" stroke="#FFEE00" stroke-width="1.5"/>
<path d="M12 4.5C12 3.11929 10.8807 2 9.5 2H9C7.89543 2 7 2.89543 7 4V4C7 5.10457 7.89543 6 9 6H12V4.5Z" stroke="#FFEE00" stroke-width="1.5"/>
<path d="M15.25 9C15.25 8.58579 14.9142 8.25 14.5 8.25C14.0858 8.25 13.75 8.58579 13.75 9L15.25 9ZM8.75 19C8.75 19.4142 9.08579 19.75 9.5 19.75C9.91421 19.75 10.25 19.4142 10.25 19L8.75 19ZM13.75 9L13.75 22L15.25 22L15.25 9L13.75 9ZM10.25 19L10.25 14L8.75 14L8.75 19L10.25 19ZM10.25 14L10.25 6L8.75 6L8.75 14L10.25 14Z" fill="#FFEE00"/>
</svg>
