<svg width="595" height="137" viewBox="0 0 595 137" fill="none" xmlns="http://www.w3.org/2000/svg">
<g filter="url(#filter0_d_749_2)">
<path fill-rule="evenodd" clip-rule="evenodd" d="M458.756 80.7308C456.993 77.8947 454.539 75.6463 451.379 73.9417C455.964 70.4296 458.256 65.7125 458.256 59.7904C458.256 53.8683 456.302 48.7838 452.378 45.0072C448.47 41.2306 442.636 39.335 434.862 39.335H413.481C407.133 39.335 401.989 44.4782 401.989 50.8265V111.781H437.507C445.384 111.781 451.335 109.856 455.362 105.977C459.373 102.097 461.386 97.1598 461.386 91.1642C461.386 87.035 460.519 83.5669 458.756 80.7308ZM434.774 95.3082H421.21L421.24 82.3472V68.2841L421.21 55.8375H431.835C433.936 55.8375 435.494 56.4106 436.552 57.5568C437.581 58.7177 438.11 60.2606 438.11 62.2151C438.11 64.052 437.507 65.5068 436.346 66.6236C435.156 67.7404 433.657 68.2841 431.835 68.2841H423.841V82.3472H434.789C439.094 82.8175 441.254 84.9189 441.254 88.622C440.916 93.0746 438.756 95.3082 434.789 95.3082H434.774ZM485.915 68.1948V82.2726H510.441V68.1948H485.915ZM516.907 39.3926H516.89L516.892 39.3779L516.907 39.3926ZM516.89 39.3926H475.496C469.163 39.3926 464.02 44.5212 464.005 50.8547V56.6886L463.99 111.854H514.894V94.5577H483.314V82.1992V68.1213V56.6886H514.879L516.89 39.3926ZM519.524 39.3935H578.245L578.318 56.7042H558.48V111.855H539.259V56.7042H517.51L519.524 39.3935Z" fill="#FFEE00"/>
<path d="M387.763 100.32V111.797H399.254V100.32H387.763Z" fill="#FFEE00"/>
<path fill-rule="evenodd" clip-rule="evenodd" d="M322.263 39.335H322.265V39.3203L322.263 39.335ZM322.263 39.335H271.361L269.348 56.6163V111.796H320.252V94.5001H288.672V82.1416V68.0638V56.631H320.252L322.263 39.335ZM315.667 68.0784V82.1563H291.258V68.0784H315.667ZM16 39.3343V56.645H37.778V111.795H56.9991V56.645H76.7492L78.7624 39.3343H16ZM126.01 83.6695C129.39 81.8473 132.035 79.2463 133.946 75.8811C135.885 72.5159 136.841 68.4895 136.841 63.8312C136.841 56.4837 134.533 50.5616 129.949 46.0796C125.349 41.5829 119.589 39.3493 112.638 39.3493H81.3669L79.3537 56.6453V111.796H98.6776V56.6453H109.802C114.401 56.8511 116.694 59.2463 116.694 63.8312C116.694 66.1971 116.062 67.9752 114.813 69.1949C113.564 70.4145 111.903 71.017 109.802 71.017H101.279V87.3138H107.48L122.454 111.81H143.703L125.996 83.6841L126.01 83.6695ZM266.734 56.6303L266.732 56.645L266.747 56.6303H266.734ZM268.745 39.3343L266.734 56.6303H235.476V69.7823V86.3877V111.781H216.137V50.8258C216.137 44.4775 221.28 39.3343 227.629 39.3343H268.745ZM238.047 86.4024V69.797H261.618L259.605 86.4024H238.047ZM344.923 92.2216C343.042 90.2966 342.087 87.8131 342.087 84.7712V39.3343H324.864L322.851 56.6303V86.7991C322.851 92.9417 324.174 97.9233 326.789 101.773C329.42 105.623 333.094 108.445 337.781 110.267C342.116 111.957 347.098 112.868 352.682 112.986V95.0577C349.185 94.8667 346.598 93.9262 344.908 92.2069L344.923 92.2216ZM365.775 39.3343V84.7712C365.775 87.8131 364.879 90.2819 363.042 92.2216C361.396 93.9556 358.81 94.8961 355.254 95.0724V113.015C360.897 112.897 365.878 111.986 370.228 110.282C374.886 108.46 378.531 105.623 381.161 101.788C383.791 97.938 385.099 92.9417 385.099 86.8138V39.3343H365.775Z" fill="white"/>
<path d="M178.322 19.0697L185.552 18.9963C185.552 18.9963 185.684 19.055 185.684 19.1285C185.684 19.1726 185.67 19.2167 185.626 19.2314L179.733 23.4195C179.733 23.4195 179.659 23.5076 179.689 23.5664L181.996 30.4143C181.996 30.4143 181.996 30.5612 181.922 30.5759C181.878 30.5759 181.834 30.5759 181.805 30.5612L176 26.2556C176 26.2556 175.897 26.2262 175.839 26.2556L170.034 30.5612C170.034 30.5612 169.902 30.5906 169.858 30.5318C169.828 30.5025 169.828 30.4584 169.843 30.4143L172.15 23.5664C172.15 23.5664 172.15 23.4489 172.106 23.4195L166.213 19.2314C166.213 19.2314 166.14 19.1138 166.184 19.055C166.213 19.0257 166.243 18.9963 166.287 18.9963L173.517 19.0697C173.517 19.0697 173.62 19.0257 173.649 18.9816L175.78 12.0896C175.78 12.0896 175.883 11.9867 175.941 12.0014C175.986 12.0014 176.015 12.0455 176.03 12.0896L178.19 18.9816C178.19 18.9816 178.263 19.0697 178.322 19.0697Z" fill="#FFEE00"/>
<path d="M157.894 56.88C156.219 53.4561 154.044 50.2525 151.972 46.9902C153.471 45.7265 155.058 44.595 156.762 43.5957C156.895 48.0483 157.321 52.4862 158.011 56.8359C158.041 57.0857 158.011 57.1004 157.894 56.8653V56.88Z" fill="#FFEE00"/>
<path d="M193.236 42.5824C191.546 49.0041 189.415 55.2788 186.888 61.4214C182.67 71.7079 176.866 81.9356 168.534 89.4447C168.372 89.5917 168.24 89.7974 168.166 90.0032C167.578 91.8106 167.02 93.6034 166.432 95.4256C166.271 95.984 166.153 96.4396 166.124 96.8069C165.977 98.0707 166.05 99.4227 166.05 100.701C166.05 101.862 165.977 102.656 165.83 103.111C165.462 104.243 164.669 105.007 163.435 105.418C162.817 105.624 162.156 105.462 161.612 105.786C161.01 106.138 160.731 106.697 160.76 107.476C160.76 107.52 160.731 107.564 160.672 107.578C159.746 107.725 159.202 108.254 159.099 109.151C146.888 103.008 138.497 90.3411 138.497 75.7343C138.497 65.2274 142.832 55.7491 149.798 48.96C150.856 50.2825 152.193 51.5757 153.075 52.6337C156.352 56.5867 158.629 61.1715 159.893 66.3883C160.878 70.4294 162.083 74.3971 163.523 78.2912L163.552 78.3206C163.552 78.3206 163.64 78.3353 163.67 78.3059C163.699 78.2618 163.758 78.1884 163.787 78.1002C170.371 65.9474 173.339 52.1929 172.883 38.4531C173.883 38.3502 174.897 38.3208 175.925 38.3208C177.16 38.3208 178.365 38.3943 179.57 38.4971C178.835 43.6992 177.806 48.8571 176.498 53.9563C174.074 63.3317 170.326 72.5896 164.61 80.4514C164.493 80.5983 164.478 80.76 164.537 80.9363C165.565 83.4933 166.682 86.0208 167.916 88.5043H167.931C167.931 88.5043 168.034 88.5483 168.063 88.5043C179.143 74.6322 185.506 57.6153 187.02 40.0107C189.18 40.672 191.252 41.539 193.236 42.5824Z" fill="#FFEE00"/>
<path d="M193.826 56.6464C194.488 52.3114 194.914 47.9616 195.002 43.5825C196.692 44.5818 198.308 45.7133 199.822 46.9771C197.838 50.1953 195.619 53.2812 193.988 56.7052C193.826 57.0872 193.753 57.0578 193.826 56.6611V56.6464Z" fill="#FFEE00"/>
<path d="M213.326 75.7343C213.326 90.3705 204.92 103.038 192.665 109.165C192.576 108.298 192.194 107.755 191.195 107.622C191.151 107.608 191.092 107.578 191.078 107.52C191.048 107.402 191.033 107.255 191.004 107.093C190.931 106.432 190.637 105.962 190.078 105.712C189.593 105.492 188.932 105.58 188.477 105.462C187.242 105.11 186.419 104.375 185.978 103.229C185.831 102.832 185.758 102.259 185.743 101.539C185.743 100.319 185.729 99.1288 185.729 97.9091C185.729 97.0715 185.684 96.5131 185.596 96.2192C184.876 93.9855 184.186 91.7813 183.48 89.6064C183.451 89.4889 183.451 89.3419 183.51 89.2243C186.698 82.9055 189.226 76.3074 191.092 69.4302C191.577 67.6668 192.18 65.0657 192.767 63.2583C194.325 58.644 196.779 54.5441 200.115 51.032C201.055 50.0327 201.687 49.3421 201.996 48.9453C208.961 55.7491 213.296 65.2274 213.296 75.7343H213.326Z" fill="#FFEE00"/>
<path d="M156.236 36.5133C156.266 36.6749 156.222 36.6896 156.119 36.5573C155.002 35.1319 150.873 30.0768 149.153 33.5155C147.081 37.6595 149.286 42.6411 151.578 46.3295C151.71 46.55 151.843 46.7557 151.975 46.9761C151.225 47.5933 150.491 48.2546 149.8 48.9599C149.462 48.5485 149.168 48.1223 148.904 47.7109C147.669 45.6976 146.729 43.4199 146.038 40.8924C145.274 37.9681 144.436 31.0173 148.242 29.5625C149.609 29.0335 151.387 29.489 152.592 30.2532C154.62 31.5317 155.913 34.1768 156.222 36.4986L156.236 36.5133Z" fill="#FFEE00"/>
<path d="M172.869 38.4531C167.021 38.9233 161.554 40.7308 156.763 43.5816C156.69 41.0247 156.734 38.4678 156.881 35.9402C156.896 35.6757 157.043 35.5288 157.292 35.4112C158.909 34.7352 160.716 34.2209 162.715 33.8682C165.933 33.3098 169.181 32.9865 172.443 32.9277C172.487 32.9277 172.531 32.9424 172.531 33.0159C172.707 34.8234 172.825 36.6456 172.884 38.4678L172.869 38.4531Z" fill="#FFEE00"/>
<path d="M192.665 109.167C192.694 109.329 192.694 109.52 192.694 109.696V116.897C192.694 116.897 192.665 116.999 192.606 116.999H159.219C159.131 116.999 159.072 116.926 159.072 116.838V109.608C159.072 109.446 159.087 109.299 159.102 109.152C164.157 111.709 169.873 113.135 175.898 113.135C181.923 113.135 187.61 111.709 192.65 109.167H192.665Z" fill="#FFEE00"/>
<path d="M194.97 36.6748C195.059 38.9819 195.073 41.2743 195 43.5668C194.412 43.1994 193.824 42.8761 193.222 42.5675C193.707 40.8188 194.133 39.0407 194.544 37.2626C194.588 37.0863 194.676 36.8511 194.75 36.6454C194.868 36.1899 194.956 36.2193 194.97 36.6601V36.6748Z" fill="#FFEE00"/>
<path d="M206.361 37.2767C205.994 41.4354 204.539 45.5647 202.026 48.9298C201.336 48.2538 200.601 47.6073 199.837 46.9754C200.513 45.8586 201.159 44.7417 201.747 43.5808C202.688 41.6999 203.496 39.4074 203.496 37.3501C203.496 35.91 203.04 32.0159 200.733 32.3832C198.867 32.6771 196.722 35.1753 195.693 36.6007C195.59 36.733 195.546 36.7183 195.575 36.5566C196.001 33.2208 198.294 29.503 202.085 29.3561C206.185 29.2091 206.626 34.4405 206.361 37.2767Z" fill="#FFEE00"/>
<path d="M187.359 33.6769C187.359 34.3087 187.344 34.9553 187.315 35.6166C187.241 37.0861 187.168 38.5409 187.021 40.0104C184.625 39.261 182.142 38.7613 179.556 38.5115C179.82 36.704 180.055 34.8671 180.232 33.045C180.246 32.9715 180.276 32.9421 180.349 32.9568C182.656 33.045 184.963 33.236 187.256 33.5593C187.3 33.574 187.359 33.6328 187.359 33.6769Z" fill="#FFEE00"/>
</g>
<defs>
<filter id="filter0_d_749_2" x="0" y="0" width="594.318" height="137" filterUnits="userSpaceOnUse" color-interpolation-filters="sRGB">
<feFlood flood-opacity="0" result="BackgroundImageFix"/>
<feColorMatrix in="SourceAlpha" type="matrix" values="0 0 0 0 0 0 0 0 0 0 0 0 0 0 0 0 0 0 127 0" result="hardAlpha"/>
<feOffset dy="4"/>
<feGaussianBlur stdDeviation="8"/>
<feComposite in2="hardAlpha" operator="out"/>
<feColorMatrix type="matrix" values="0 0 0 0 0 0 0 0 0 0 0 0 0 0 0 0 0 0 0.5 0"/>
<feBlend mode="normal" in2="BackgroundImageFix" result="effect1_dropShadow_749_2"/>
<feBlend mode="normal" in="SourceGraphic" in2="effect1_dropShadow_749_2" result="shape"/>
</filter>
</defs>
</svg>
