<svg width="400" height="505" viewBox="0 0 76 105" fill="none" xmlns="http://www.w3.org/2000/svg">
<path d="M40.3221 7.06974L47.552 6.99626C47.552 6.99626 47.6843 7.05504 47.6843 7.12852C47.6843 7.1726 47.6696 7.21669 47.6255 7.23138L41.7328 11.4195C41.7328 11.4195 41.6593 11.5076 41.6887 11.5664L43.9958 18.4143C43.9958 18.4143 43.9958 18.5612 43.9224 18.5759C43.8783 18.5759 43.8342 18.5759 43.8048 18.5612L38.0003 14.2556C38.0003 14.2556 37.8974 14.2262 37.8386 14.2556L32.0341 18.5612C32.0341 18.5612 31.9018 18.5906 31.8578 18.5318C31.8284 18.5025 31.8284 18.4584 31.8431 18.4143L34.1502 11.5664C34.1502 11.5664 34.1502 11.4489 34.1061 11.4195L28.2134 7.23138C28.2134 7.23138 28.1399 7.11382 28.184 7.05504C28.2134 7.02565 28.2428 6.99626 28.2869 6.99626L35.5168 7.06974C35.5168 7.06974 35.6197 7.02565 35.6491 6.98157L37.7799 0.0896069C37.7799 0.0896069 37.8827 -0.0132582 37.9415 0.00143685C37.9856 0.00143685 38.015 0.0455219 38.0297 0.0896069L40.1898 6.98157C40.1898 6.98157 40.2633 7.06974 40.3221 7.06974Z" fill="#FFEE00"/>
<path d="M19.8938 44.88C18.2185 41.4561 16.0437 38.2525 13.9717 34.9902C15.4706 33.7265 17.0576 32.595 18.7623 31.5957C18.8945 36.0483 19.3207 40.4862 20.0113 44.8359C20.0407 45.0857 20.0113 45.1004 19.8938 44.8653V44.88Z" fill="#FFEE00"/>
<path d="M55.236 30.5824C53.5461 37.0041 51.4153 43.2788 48.8877 49.4214C44.6703 59.7079 38.8657 69.9356 30.5337 77.4447C30.372 77.5917 30.2398 77.7974 30.1663 78.0032C29.5785 79.8106 29.0201 81.6034 28.4323 83.4256C28.2706 83.984 28.1531 84.4396 28.1237 84.8069C27.9767 86.0707 28.0502 87.4227 28.0502 88.7011C28.0502 89.862 27.9767 90.6556 27.8298 91.1111C27.4624 92.2426 26.6689 93.0068 25.4345 93.4182C24.8173 93.6239 24.156 93.4623 23.6123 93.7856C23.0098 94.1383 22.7306 94.6967 22.76 95.4755C22.76 95.5196 22.7306 95.5637 22.6718 95.5784C21.746 95.7253 21.2023 96.2544 21.0995 97.1507C8.88791 91.0082 0.49707 78.3411 0.49707 63.7343C0.49707 53.2274 4.8321 43.7491 11.7975 36.96C12.8556 38.2825 14.1928 39.5757 15.0745 40.6337C18.3515 44.5867 20.6292 49.1715 21.893 54.3883C22.8776 58.4294 24.0826 62.3971 25.5227 66.2912L25.5521 66.3206C25.5521 66.3206 25.6402 66.3353 25.6696 66.3059C25.699 66.2618 25.7578 66.1884 25.7872 66.1002C32.3705 53.9474 35.3389 40.1929 34.8834 26.4531C35.8827 26.3502 36.8966 26.3208 37.9253 26.3208C39.1596 26.3208 40.3646 26.3943 41.5696 26.4971C40.8349 31.6992 39.8062 36.8571 38.4984 41.9563C36.0737 51.3317 32.3265 60.5896 26.6101 68.4514C26.4925 68.5983 26.4778 68.76 26.5366 68.9363C27.5653 71.4933 28.6821 74.0208 29.9165 76.5043H29.9312C29.9312 76.5043 30.034 76.5483 30.0634 76.5043C41.1435 62.6322 47.5064 45.6153 49.02 28.0107C51.1802 28.672 53.2522 29.539 55.236 30.5824Z" fill="#FFEE00"/>
<path d="M55.8264 44.6464C56.4877 40.3114 56.9138 35.9616 57.002 31.5825C58.6919 32.5818 60.3084 33.7133 61.822 34.9771C59.8381 38.1953 57.6192 41.2812 55.988 44.7052C55.8264 45.0872 55.7529 45.0578 55.8264 44.6611V44.6464Z" fill="#FFEE00"/>
<path d="M75.3258 63.7343C75.3258 78.3705 66.9203 91.0377 54.6646 97.1655C54.5765 96.2985 54.1944 95.7547 53.1951 95.6225C53.151 95.6078 53.0923 95.5784 53.0776 95.5196C53.0482 95.4021 53.0335 95.2551 53.0041 95.0935C52.9306 94.4322 52.6367 93.962 52.0783 93.7121C51.5934 93.4917 50.9321 93.5799 50.4766 93.4623C49.2422 93.1096 48.4192 92.3749 47.9784 91.2287C47.8314 90.8319 47.758 90.2588 47.7433 89.5388C47.7433 88.3191 47.7286 87.1288 47.7286 85.9091C47.7286 85.0715 47.6845 84.5131 47.5963 84.2192C46.8763 81.9855 46.1856 79.7813 45.4802 77.6064C45.4509 77.4889 45.4508 77.3419 45.5096 77.2243C48.6984 70.9055 51.226 64.3074 53.0923 57.4302C53.5772 55.6668 54.1797 53.0657 54.7675 51.2583C56.3252 46.644 58.7792 42.5441 62.115 39.032C63.0555 38.0327 63.6874 37.3421 63.996 36.9453C70.9614 43.7491 75.2964 53.2274 75.2964 63.7343H75.3258Z" fill="#FFEE00"/>
<path d="M18.2363 24.5133C18.2657 24.6749 18.2216 24.6896 18.1188 24.5573C17.0019 23.1319 12.8726 18.0768 11.1533 21.5155C9.08133 25.6595 11.2856 30.6411 13.578 34.3295C13.7103 34.55 13.8425 34.7557 13.9748 34.9761C13.2253 35.5933 12.4906 36.2546 11.7999 36.9599C11.4619 36.5485 11.168 36.1223 10.9035 35.7109C9.66913 33.6976 8.72864 31.4199 8.03798 28.8924C7.27384 25.9681 6.43622 19.0173 10.2422 17.5625C11.6089 17.0335 13.387 17.489 14.592 18.2532C16.6199 19.5317 17.913 22.1768 18.2216 24.4986L18.2363 24.5133Z" fill="#FFEE00"/>
<path d="M34.8691 26.4531C29.0205 26.9233 23.554 28.7308 18.7634 31.5816C18.6899 29.0247 18.734 26.4678 18.881 23.9402C18.8957 23.6757 19.0426 23.5288 19.2924 23.4112C20.9089 22.7352 22.7164 22.2209 24.7149 21.8682C27.9331 21.3098 31.1807 20.9865 34.443 20.9277C34.4871 20.9277 34.5312 20.9424 34.5312 21.0159C34.7075 22.8234 34.8251 24.6456 34.8838 26.4678L34.8691 26.4531Z" fill="#FFEE00"/>
<path d="M54.6651 97.167C54.6945 97.3287 54.6944 97.5197 54.6944 97.6961V104.897C54.6944 104.897 54.6651 104.999 54.6063 104.999H21.2192C21.131 104.999 21.0723 104.926 21.0723 104.838V97.6079C21.0723 97.4462 21.087 97.2993 21.1017 97.1523C26.1567 99.7093 31.8731 101.135 37.898 101.135C43.923 101.135 49.61 99.7093 54.6504 97.167H54.6651Z" fill="#FFEE00"/>
<path d="M56.9704 24.6748C57.0586 26.9819 57.0732 29.2743 56.9998 31.5668C56.412 31.1994 55.8242 30.8761 55.2217 30.5675C55.7066 28.8188 56.1328 27.0407 56.5442 25.2626C56.5883 25.0863 56.6765 24.8511 56.75 24.6454C56.8675 24.1899 56.9557 24.2193 56.9704 24.6601V24.6748Z" fill="#FFEE00"/>
<path d="M68.3615 25.2767C67.9941 29.4354 66.5393 33.5647 64.0265 36.9298C63.3358 36.2538 62.601 35.6073 61.8369 34.9754C62.5129 33.8586 63.1595 32.7417 63.7473 31.5808C64.6877 29.6999 65.496 27.4074 65.496 25.3501C65.496 23.91 65.0404 20.0159 62.7333 20.3832C60.867 20.6771 58.7216 23.1753 57.6929 24.6007C57.59 24.733 57.546 24.7183 57.5753 24.5566C58.0015 21.2208 60.2939 17.503 64.0852 17.3561C68.1851 17.2091 68.626 22.4405 68.3615 25.2767Z" fill="#FFEE00"/>
<path d="M49.3587 21.6769C49.3587 22.3087 49.344 22.9553 49.3146 23.6166C49.2412 25.0861 49.1677 26.5409 49.0207 28.0104C46.6254 27.261 44.142 26.7613 41.5557 26.5115C41.8202 24.704 42.0553 22.8671 42.2316 21.045C42.2463 20.9715 42.2757 20.9421 42.3492 20.9568C44.6563 21.045 46.9634 21.236 49.2558 21.5593C49.2999 21.574 49.3587 21.6328 49.3587 21.6769Z" fill="#FFEE00"/>
</svg>
