<svg width="510" height="512" viewBox="0 0 510 512" fill="none" xmlns="http://www.w3.org/2000/svg">
<path fill-rule="evenodd" clip-rule="evenodd" d="M435.544 74.4107C387.629 26.4533 323.928 0.0213333 256.066 0C116.226 0 2.41315 113.792 2.34915 253.696C2.32782 298.411 14.0185 342.059 36.2265 380.544L0.21582 512L134.701 476.715C171.757 496.939 213.485 507.584 255.938 507.605H256.045C395.864 507.605 509.699 393.792 509.763 253.888C509.805 186.112 483.437 122.347 435.544 74.4107ZM256.066 464.747H255.981C218.136 464.747 181.037 454.571 148.653 435.349L140.952 430.784L61.1438 451.712L82.4558 373.888L77.4425 365.909C56.3225 332.331 45.1865 293.525 45.2078 253.696C45.2505 137.429 139.864 42.8373 256.173 42.8373C312.493 42.8373 365.442 64.8107 405.251 104.661C445.059 144.533 466.968 197.504 466.947 253.845C466.883 370.155 372.29 464.747 256.066 464.747ZM371.736 306.816C365.4 303.637 334.232 288.299 328.408 286.187C322.605 284.075 318.381 283.008 314.136 289.344C309.89 295.68 297.773 309.973 294.061 314.219C290.37 318.443 286.658 318.976 280.322 315.797C273.986 312.619 253.549 305.941 229.336 284.331C210.498 267.52 197.762 246.763 194.072 240.405C190.381 234.048 193.688 230.635 196.845 227.477C199.704 224.64 203.181 220.075 206.36 216.363C209.56 212.693 210.605 210.048 212.738 205.803C214.85 201.579 213.805 197.867 212.205 194.688C210.605 191.531 197.933 160.32 192.664 147.627C187.522 135.253 182.296 136.939 178.392 136.747C174.701 136.555 170.477 136.533 166.232 136.533C162.008 136.533 155.138 138.112 149.336 144.469C143.533 150.827 127.149 166.165 127.149 197.355C127.149 228.565 149.869 258.709 153.026 262.933C156.184 267.157 197.72 331.2 261.314 358.656C276.44 365.184 288.258 369.088 297.453 372.011C312.642 376.832 326.467 376.149 337.389 374.528C349.571 372.715 374.893 359.189 380.184 344.384C385.475 329.579 385.475 316.864 383.875 314.24C382.296 311.573 378.072 309.995 371.736 306.816Z" fill="#FFEE00"/>
</svg>
