<svg width="24" height="24" viewBox="0 0 24 24" fill="none" xmlns="http://www.w3.org/2000/svg">
<path d="M2 16.5V17C2 19.7614 4.23858 22 7 22H17C19.7614 22 22 19.7614 22 17V11C22 8.23858 19.7614 6 17 6H7C4.23858 6 2 8.23858 2 11V12" stroke="#FFEE00" stroke-width="1.5" stroke-linecap="round"/>
<path d="M19 6.5V6.33914C19 4.0991 16.944 2.42329 14.75 2.875V2.875L10.5 3.75L5.99174 4.67817C3.66769 5.15665 2 7.20267 2 9.57546L2 12" stroke="#FFEE00" stroke-width="1.5"/>
<path d="M6 17.5H12" stroke="#FFEE00" stroke-width="1.5" stroke-linecap="round" stroke-linejoin="round"/>
<path d="M22 16.5V17.25H22.75V16.5H22ZM18.5 12.25C18.9142 12.25 19.25 11.9142 19.25 11.5C19.25 11.0858 18.9142 10.75 18.5 10.75V12.25ZM21.25 11.5V16.5H22.75V11.5H21.25ZM22 15.75H17.5V17.25H22V15.75ZM17.5 12.25H18.5V10.75H17.5V12.25ZM17.5 15.75C16.5335 15.75 15.75 14.9665 15.75 14H14.25C14.25 15.7949 15.7051 17.25 17.5 17.25V15.75ZM15.75 14C15.75 13.0335 16.5335 12.25 17.5 12.25V10.75C15.7051 10.75 14.25 12.2051 14.25 14H15.75Z" fill="#FFEE00"/>
<path d="M17.5 14H17.7" stroke="#FFEE00" stroke-width="1.5" stroke-linecap="round" stroke-linejoin="round"/>
</svg>
